<?xml version="1.0" encoding="iso-8859-1"?>
<!-- Generator: Adobe Illustrator 19.0.0, SVG Export Plug-In . SVG Version: 6.00 Build 0)  -->
<svg version="1.1" id="Capa_1" xmlns="http://www.w3.org/2000/svg" xmlns:xlink="http://www.w3.org/1999/xlink" x="0px" y="0px"
	 viewBox="0 0 512 512" style="enable-background:new 0 0 512 512;" xml:space="preserve">
<g>
	<g>
		<g>
			<path d="M352,96c-0.053-52.997-43.003-95.947-96-96H96C43.003,0.053,0.053,43.003,0,96v320c0,49.504,40,96,64,96h448V96H352z
				 M32,96c0-35.346,28.654-64,64-64h160c35.346,0,64,28.654,64,64v232.896c-9.686-5.759-20.732-8.83-32-8.896H96
				c-23.648,0.006-46.453,8.786-64,24.64V96z M480,480H65.408C44.965,464.988,32.628,441.355,32,416c0-35.346,28.654-64,64-64h192
				c17.673,0,32,14.327,32,32c0,17.673-14.327,32-32,32H112v32h176c35.346,0,64-28.654,64-64V128h128V480z"/>
			<rect x="416" y="160" width="32" height="32"/>
			<rect x="416" y="224" width="32" height="32"/>
			<rect x="416" y="288" width="32" height="32"/>
			<rect x="416" y="352" width="32" height="32"/>
			<rect x="416" y="416" width="32" height="32"/>
		</g>
	</g>
</g>
<g>
</g>
<g>
</g>
<g>
</g>
<g>
</g>
<g>
</g>
<g>
</g>
<g>
</g>
<g>
</g>
<g>
</g>
<g>
</g>
<g>
</g>
<g>
</g>
<g>
</g>
<g>
</g>
<g>
</g>
</svg>
