<svg height="511pt" viewBox="1 -24 511.999 511" width="511pt" xmlns="http://www.w3.org/2000/svg"><path d="m477.703125 42.71875h-304.222656c-16.992188-25.433594-45.96875-42.21875-78.800781-42.21875-52.207032 0-94.679688 42.445312-94.679688 94.621094v272.753906c0 52.175781 42.472656 94.625 94.679688 94.625 30.636718 0 57.917968-14.617188 75.234374-37.238281h307.789063c18.910156 0 34.296875-15.371094 34.296875-34.261719v-314.015625c0-18.894531-15.386719-34.265625-34.296875-34.265625zm4.25 226.453125-126.140625 126.089844h-65.90625l192.046875-191.960938zm-292.59375-100.710937 95.785156-95.742188h69.378907l-165.164063 165.089844zm0 111.796874 207.628906-207.539062h64l-271.628906 271.507812zm53.316406-207.539062-53.316406 53.292969v-30.890625c0-7.714844-.925781-15.21875-2.679687-22.402344zm-147.996093-42.21875c35.640624 0 64.636718 28.988281 64.636718 64.621094v203.671875c-16.933594-15.835938-39.671875-25.539063-64.636718-25.539063-24.964844 0-47.703126 9.703125-64.632813 25.539063v-203.671875c0-35.632813 28.992187-64.621094 64.632813-64.621094zm0 402c-35.640626 0-64.632813-28.992188-64.632813-64.625s28.992187-64.621094 64.632813-64.621094c35.640624 0 64.636718 28.988282 64.636718 64.621094s-28.996094 64.625-64.636718 64.625zm92.285156-43.429688 294.988281-294.863281v66.644531l-234.511719 234.410157h-62.125c.617188-2.035157 1.167969-4.101563 1.648438-6.191407zm290.738281 6.191407h-79.425781l83.675781-83.640625v79.378906c0 2.351562-1.90625 4.261719-4.25 4.261719zm0 0"/><path d="m94.679688 326.414062c-22.898438 0-41.527344 18.601563-41.527344 41.460938 0 22.863281 18.628906 41.464844 41.527344 41.464844 22.898437 0 41.527343-18.601563 41.527343-41.464844 0-22.859375-18.628906-41.460938-41.527343-41.460938zm0 52.925782c-6.332032 0-11.480469-5.144532-11.480469-11.464844s5.148437-11.460938 11.480469-11.460938c6.332031 0 11.480468 5.140626 11.480468 11.460938s-5.148437 11.464844-11.480468 11.464844zm0 0"/></svg>