<svg id="Capa_1" enable-background="new 0 0 512 512" height="512" viewBox="0 0 512 512" width="512" xmlns="http://www.w3.org/2000/svg"><g><path d="m0 0v512h512v-512zm482 30v30h-452v-30zm-392 240h61.066c1.213 8.524 3.441 16.725 6.562 24.475l-27.774 16.035 15 25.98 27.808-16.055c5.235 6.653 11.249 12.667 17.902 17.902l-16.055 27.808 25.98 15 16.035-27.774c7.75 3.121 15.95 5.349 24.475 6.562v32.067h30v-32.066c8.524-1.213 16.724-3.441 24.474-6.562l16.035 27.774 25.98-15-16.055-27.808c6.653-5.235 12.667-11.249 17.902-17.902l27.808 16.055 15-25.98-27.774-16.035c3.121-7.75 5.349-15.95 6.562-24.474h61.069v152h-332zm166 61c-36.773 0-67.522-26.253-74.506-61h149.013c-6.985 34.747-37.735 61-74.507 61zm-226-91v-30h452v30zm0-60v-30h452v30zm0-60v-30h452v30zm0 362v-212h30v182h392v-182h30v212z"/></g></svg>